<svg width="800" height="420" xmlns="http://www.w3.org/2000/svg">
  <defs>
    <style>
      @keyframes fadeSlideIn {
        0%   { opacity: 0; transform: translateY(18px); }
        100% { opacity: 1; transform: translateY(0); }
      }
      @keyframes borderPulse {
        0%, 100% { stroke-opacity: 0.4; }
        50%       { stroke-opacity: 1; }
      }
      @keyframes glowPulse {
        0%, 100% { filter: drop-shadow(0 0 3px #a855f780); }
        50%       { filter: drop-shadow(0 0 10px #a855f7cc) drop-shadow(0 0 18px #7c3aed88); }
      }
      @keyframes tagFloat {
        0%, 100% { transform: translateY(0px); }
        50%       { transform: translateY(-3px); }
      }
      @keyframes scanline {
        0%   { transform: translateY(-2px); opacity: 0; }
        10%  { opacity: 0.15; }
        90%  { opacity: 0.15; }
        100% { transform: translateY(420px); opacity: 0; }
      }
      @keyframes titleGlow {
        0%, 100% { fill: #a855f7; }
        50%       { fill: #d8b4fe; }
      }
      @keyframes dotBlink {
        0%, 100% { opacity: 1; }
        50%       { opacity: 0.2; }
      }

      .bg-main   { fill: #09091a; }
      .outer-border {
        fill: none; stroke: #a855f7; stroke-width: 1.2;
        animation: borderPulse 3s ease-in-out infinite;
      }
      .inner-glow {
        fill: none; stroke: #7c3aed; stroke-width: 0.4; stroke-opacity: 0.25;
      }
      .scanline { fill: #a855f7; animation: scanline 6s linear infinite; }

      .header-group { animation: fadeSlideIn 0.5s ease both; }
      .title-text {
        font-family: 'Segoe UI', sans-serif; font-size: 14px; font-weight: 800;
        letter-spacing: 4px; text-transform: uppercase;
        animation: titleGlow 3s ease-in-out infinite;
      }
      .section-label {
        font-family: 'Courier New', monospace; font-size: 8.5px; font-weight: 700;
        fill: #6366f1; letter-spacing: 3.5px; text-transform: uppercase;
      }

      /* Row stagger */
      .row1 { animation: fadeSlideIn 0.6s ease both; }
      .row2 { animation: fadeSlideIn 0.6s ease both 0.12s; opacity:0; }
      .row3 { animation: fadeSlideIn 0.6s ease both 0.24s; opacity:0; }
      .row4 { animation: fadeSlideIn 0.6s ease both 0.36s; opacity:0; }
      .row5 { animation: fadeSlideIn 0.6s ease both 0.48s; opacity:0; }

      /* Tag base */
      .tag-wrap { animation: tagFloat 4s ease-in-out infinite; }
      .tag-rect  { rx: 7; ry: 7; }
      .tag-text  {
        font-family: 'Segoe UI', sans-serif; font-size: 10.5px; font-weight: 600;
        fill: #e2e8f0;
      }
      .tag-icon-circle { }

      /* Divider */
      .divider { stroke: #1e1b4b; stroke-width: 0.6; stroke-dasharray: 4 3; }

      /* Corner dots */
      .corner-dot { fill: #a855f7; animation: dotBlink 2s ease-in-out infinite; }
    </style>

    <!-- Scanline gradient mask -->
    <linearGradient id="scanGrad" x1="0" y1="0" x2="0" y2="1">
      <stop offset="0%"   stop-color="#a855f7" stop-opacity="0"/>
      <stop offset="50%"  stop-color="#a855f7" stop-opacity="0.15"/>
      <stop offset="100%" stop-color="#a855f7" stop-opacity="0"/>
    </linearGradient>

    <!-- Tag background gradient -->
    <linearGradient id="tagGrad" x1="0" y1="0" x2="1" y2="1">
      <stop offset="0%"   stop-color="#14122a"/>
      <stop offset="100%" stop-color="#0f0f20"/>
    </linearGradient>

    <!-- Header gradient -->
    <linearGradient id="headerGrad" x1="0" y1="0" x2="1" y2="0">
      <stop offset="0%"   stop-color="#09091a"/>
      <stop offset="30%"  stop-color="#1a0d3a"/>
      <stop offset="70%"  stop-color="#1a0d3a"/>
      <stop offset="100%" stop-color="#09091a"/>
    </linearGradient>

    <clipPath id="mainClip">
      <rect width="800" height="420" rx="14"/>
    </clipPath>
  </defs>

  <!-- Background -->
  <rect width="800" height="420" class="bg-main" rx="14"/>

  <!-- Subtle grid lines -->
  <g opacity="0.04" stroke="#a855f7" stroke-width="0.5">
    <line x1="0" y1="70"  x2="800" y2="70"/>
    <line x1="0" y1="140" x2="800" y2="140"/>
    <line x1="0" y1="210" x2="800" y2="210"/>
    <line x1="0" y1="280" x2="800" y2="280"/>
    <line x1="0" y1="350" x2="800" y2="350"/>
    <line x1="160" y1="0" x2="160" y2="420"/>
    <line x1="320" y1="0" x2="320" y2="420"/>
    <line x1="480" y1="0" x2="480" y2="420"/>
    <line x1="640" y1="0" x2="640" y2="420"/>
  </g>

  <!-- Scanline sweep -->
  <g clip-path="url(#mainClip)">
    <rect x="0" y="0" width="800" height="18" fill="url(#scanGrad)" class="scanline"/>
  </g>

  <!-- Inner border glow -->
  <rect x="3" y="3" width="794" height="414" class="inner-glow" rx="12"/>
  <!-- Outer border -->
  <rect x="1" y="1" width="798" height="418" class="outer-border" rx="13"/>

  <!-- Corner accents -->
  <circle cx="18" cy="18"  r="3" class="corner-dot"/>
  <circle cx="782" cy="18" r="3" class="corner-dot" style="animation-delay:0.5s"/>
  <circle cx="18" cy="402" r="3" class="corner-dot" style="animation-delay:1s"/>
  <circle cx="782" cy="402" r="3" class="corner-dot" style="animation-delay:1.5s"/>

  <!-- Corner L-shapes -->
  <path d="M10,30 L10,10 L30,10"   fill="none" stroke="#7c3aed" stroke-width="1.5" stroke-opacity="0.7"/>
  <path d="M770,10 L790,10 L790,30" fill="none" stroke="#7c3aed" stroke-width="1.5" stroke-opacity="0.7"/>
  <path d="M10,390 L10,410 L30,410" fill="none" stroke="#7c3aed" stroke-width="1.5" stroke-opacity="0.7"/>
  <path d="M770,410 L790,410 L790,390" fill="none" stroke="#7c3aed" stroke-width="1.5" stroke-opacity="0.7"/>

  <!-- ═══ HEADER ═══ -->
  <g class="header-group">
    <rect x="0" y="0" width="800" height="58" fill="url(#headerGrad)"/>
    <text x="400" y="26" class="title-text" text-anchor="middle">⚡ Tech Stack</text>
    <!-- Decorative line with center diamond -->
    <line x1="50" y1="38" x2="352" y2="38" stroke="#4c1d95" stroke-width="0.8"/>
    <polygon points="400,33 407,38 400,43 393,38" fill="#a855f7" opacity="0.9"/>
    <line x1="448" y1="38" x2="750" y2="38" stroke="#4c1d95" stroke-width="0.8"/>
    <text x="400" y="52" class="section-label" text-anchor="middle" style="fill:#4c1d95;letter-spacing:6px">software · ai · systems</text>
  </g>

  <!-- ═══ ROW 1 · LANGUAGES ═══ -->
  <g class="row1">
    <text x="400" y="78" class="section-label" text-anchor="middle">Languages</text>

    <!-- Java -->
    <g class="tag-wrap" style="animation-delay:0.0s">
      <rect x="46" y="84" width="90" height="28" fill="url(#tagGrad)" rx="7" stroke="#ED8B00" stroke-width="0.8" stroke-opacity="0.7"/>
      <circle cx="62" cy="98" r="6" fill="#ED8B00" fill-opacity="0.2" stroke="#ED8B00" stroke-width="1"/>
      <circle cx="62" cy="98" r="3" fill="#ED8B00"/>
      <text x="75" y="103" class="tag-text">Java</text>
    </g>
    <!-- JavaScript -->
    <g class="tag-wrap" style="animation-delay:0.15s">
      <rect x="144" y="84" width="108" height="28" fill="url(#tagGrad)" rx="7" stroke="#F7DF1E" stroke-width="0.8" stroke-opacity="0.7"/>
      <circle cx="160" cy="98" r="6" fill="#F7DF1E" fill-opacity="0.2" stroke="#F7DF1E" stroke-width="1"/>
      <circle cx="160" cy="98" r="3" fill="#F7DF1E"/>
      <text x="173" y="103" class="tag-text">JavaScript</text>
    </g>
    <!-- TypeScript -->
    <g class="tag-wrap" style="animation-delay:0.25s">
      <rect x="260" y="84" width="106" height="28" fill="url(#tagGrad)" rx="7" stroke="#3178C6" stroke-width="0.8" stroke-opacity="0.7"/>
      <circle cx="276" cy="98" r="6" fill="#3178C6" fill-opacity="0.2" stroke="#3178C6" stroke-width="1"/>
      <circle cx="276" cy="98" r="3" fill="#3178C6"/>
      <text x="289" y="103" class="tag-text">TypeScript</text>
    </g>
    <!-- Python -->
    <g class="tag-wrap" style="animation-delay:0.35s">
      <rect x="374" y="84" width="88" height="28" fill="url(#tagGrad)" rx="7" stroke="#3776AB" stroke-width="0.8" stroke-opacity="0.7"/>
      <circle cx="390" cy="98" r="6" fill="#3776AB" fill-opacity="0.2" stroke="#3776AB" stroke-width="1"/>
      <circle cx="390" cy="98" r="3" fill="#3776AB"/>
      <text x="403" y="103" class="tag-text">Python</text>
    </g>
    <!-- Go -->
    <g class="tag-wrap" style="animation-delay:0.45s">
      <rect x="470" y="84" width="66" height="28" fill="url(#tagGrad)" rx="7" stroke="#00ADD8" stroke-width="0.8" stroke-opacity="0.7"/>
      <circle cx="486" cy="98" r="6" fill="#00ADD8" fill-opacity="0.2" stroke="#00ADD8" stroke-width="1"/>
      <circle cx="486" cy="98" r="3" fill="#00ADD8"/>
      <text x="499" y="103" class="tag-text">Go</text>
    </g>
    <!-- C++ -->
    <g class="tag-wrap" style="animation-delay:0.55s">
      <rect x="544" y="84" width="66" height="28" fill="url(#tagGrad)" rx="7" stroke="#00599C" stroke-width="0.8" stroke-opacity="0.7"/>
      <circle cx="560" cy="98" r="6" fill="#00599C" fill-opacity="0.2" stroke="#00599C" stroke-width="1"/>
      <circle cx="560" cy="98" r="3" fill="#00599C"/>
      <text x="573" y="103" class="tag-text">C++</text>
    </g>
    <!-- SQL -->
    <g class="tag-wrap" style="animation-delay:0.65s">
      <rect x="618" y="84" width="60" height="28" fill="url(#tagGrad)" rx="7" stroke="#f97316" stroke-width="0.8" stroke-opacity="0.7"/>
      <circle cx="634" cy="98" r="6" fill="#f97316" fill-opacity="0.2" stroke="#f97316" stroke-width="1"/>
      <circle cx="634" cy="98" r="3" fill="#f97316"/>
      <text x="647" y="103" class="tag-text">SQL</text>
    </g>
  </g>

  <line x1="40" y1="126" x2="760" y2="126" class="divider"/>

  <!-- ═══ ROW 2 · BACKEND ═══ -->
  <g class="row2">
    <text x="400" y="145" class="section-label" text-anchor="middle">Backend &amp; Frameworks</text>

    <g class="tag-wrap" style="animation-delay:0.1s">
      <rect x="36" y="151" width="102" height="28" fill="url(#tagGrad)" rx="7" stroke="#6DB33F" stroke-width="0.8" stroke-opacity="0.7"/>
      <circle cx="52" cy="165" r="6" fill="#6DB33F" fill-opacity="0.2" stroke="#6DB33F" stroke-width="1"/>
      <circle cx="52" cy="165" r="3" fill="#6DB33F"/>
      <text x="65" y="170" class="tag-text">Spring Boot</text>
    </g>
    <g class="tag-wrap" style="animation-delay:0.2s">
      <rect x="146" y="151" width="84" height="28" fill="url(#tagGrad)" rx="7" stroke="#339933" stroke-width="0.8" stroke-opacity="0.7"/>
      <circle cx="162" cy="165" r="6" fill="#339933" fill-opacity="0.2" stroke="#339933" stroke-width="1"/>
      <circle cx="162" cy="165" r="3" fill="#339933"/>
      <text x="175" y="170" class="tag-text">Node.js</text>
    </g>
    <g class="tag-wrap" style="animation-delay:0.3s">
      <rect x="238" y="151" width="94" height="28" fill="url(#tagGrad)" rx="7" stroke="#666" stroke-width="0.8" stroke-opacity="0.7"/>
      <circle cx="254" cy="165" r="6" fill="#888" fill-opacity="0.2" stroke="#888" stroke-width="1"/>
      <circle cx="254" cy="165" r="3" fill="#aaa"/>
      <text x="267" y="170" class="tag-text">Express.js</text>
    </g>
    <g class="tag-wrap" style="animation-delay:0.4s">
      <rect x="340" y="151" width="80" height="28" fill="url(#tagGrad)" rx="7" stroke="#009688" stroke-width="0.8" stroke-opacity="0.7"/>
      <circle cx="356" cy="165" r="6" fill="#009688" fill-opacity="0.2" stroke="#009688" stroke-width="1"/>
      <circle cx="356" cy="165" r="3" fill="#009688"/>
      <text x="369" y="170" class="tag-text">FastAPI</text>
    </g>
    <g class="tag-wrap" style="animation-delay:0.5s">
      <rect x="428" y="151" width="76" height="28" fill="url(#tagGrad)" rx="7" stroke="#2ba977" stroke-width="0.8" stroke-opacity="0.7"/>
      <circle cx="444" cy="165" r="6" fill="#2ba977" fill-opacity="0.2" stroke="#2ba977" stroke-width="1"/>
      <circle cx="444" cy="165" r="3" fill="#2ba977"/>
      <text x="457" y="170" class="tag-text">Django</text>
    </g>
    <g class="tag-wrap" style="animation-delay:0.6s">
      <rect x="512" y="151" width="68" height="28" fill="url(#tagGrad)" rx="7" stroke="#999" stroke-width="0.8" stroke-opacity="0.7"/>
      <circle cx="528" cy="165" r="6" fill="#aaa" fill-opacity="0.2" stroke="#aaa" stroke-width="1"/>
      <circle cx="528" cy="165" r="3" fill="#ccc"/>
      <text x="541" y="170" class="tag-text">Flask</text>
    </g>
    <g class="tag-wrap" style="animation-delay:0.7s">
      <rect x="588" y="151" width="68" height="28" fill="url(#tagGrad)" rx="7" stroke="#61DAFB" stroke-width="0.8" stroke-opacity="0.7"/>
      <circle cx="604" cy="165" r="6" fill="#61DAFB" fill-opacity="0.2" stroke="#61DAFB" stroke-width="1"/>
      <circle cx="604" cy="165" r="3" fill="#61DAFB"/>
      <text x="617" y="170" class="tag-text">React</text>
    </g>
  </g>

  <line x1="40" y1="193" x2="760" y2="193" class="divider"/>

  <!-- ═══ ROW 3 · DATABASES ═══ -->
  <g class="row3">
    <text x="400" y="212" class="section-label" text-anchor="middle">Databases</text>

    <g class="tag-wrap" style="animation-delay:0.1s">
      <rect x="76" y="218" width="102" height="28" fill="url(#tagGrad)" rx="7" stroke="#336791" stroke-width="0.8" stroke-opacity="0.7"/>
      <circle cx="92" cy="232" r="6" fill="#336791" fill-opacity="0.2" stroke="#336791" stroke-width="1"/>
      <circle cx="92" cy="232" r="3" fill="#336791"/>
      <text x="105" y="237" class="tag-text">PostgreSQL</text>
    </g>
    <g class="tag-wrap" style="animation-delay:0.2s">
      <rect x="186" y="218" width="96" height="28" fill="url(#tagGrad)" rx="7" stroke="#47A248" stroke-width="0.8" stroke-opacity="0.7"/>
      <circle cx="202" cy="232" r="6" fill="#47A248" fill-opacity="0.2" stroke="#47A248" stroke-width="1"/>
      <circle cx="202" cy="232" r="3" fill="#47A248"/>
      <text x="215" y="237" class="tag-text">MongoDB</text>
    </g>
    <g class="tag-wrap" style="animation-delay:0.3s">
      <rect x="290" y="218" width="74" height="28" fill="url(#tagGrad)" rx="7" stroke="#4479A1" stroke-width="0.8" stroke-opacity="0.7"/>
      <circle cx="306" cy="232" r="6" fill="#4479A1" fill-opacity="0.2" stroke="#4479A1" stroke-width="1"/>
      <circle cx="306" cy="232" r="3" fill="#4479A1"/>
      <text x="319" y="237" class="tag-text">MySQL</text>
    </g>
    <g class="tag-wrap" style="animation-delay:0.4s">
      <rect x="372" y="218" width="70" height="28" fill="url(#tagGrad)" rx="7" stroke="#DD0031" stroke-width="0.8" stroke-opacity="0.7"/>
      <circle cx="388" cy="232" r="6" fill="#DD0031" fill-opacity="0.2" stroke="#DD0031" stroke-width="1"/>
      <circle cx="388" cy="232" r="3" fill="#DD0031"/>
      <text x="401" y="237" class="tag-text">Redis</text>
    </g>
    <g class="tag-wrap" style="animation-delay:0.5s">
      <rect x="450" y="218" width="82" height="28" fill="url(#tagGrad)" rx="7" stroke="#FFCA28" stroke-width="0.8" stroke-opacity="0.7"/>
      <circle cx="466" cy="232" r="6" fill="#FFCA28" fill-opacity="0.2" stroke="#FFCA28" stroke-width="1"/>
      <circle cx="466" cy="232" r="3" fill="#FFCA28"/>
      <text x="479" y="237" class="tag-text">Firebase</text>
    </g>
    <g class="tag-wrap" style="animation-delay:0.6s">
      <rect x="540" y="218" width="70" height="28" fill="url(#tagGrad)" rx="7" stroke="#0f7fd4" stroke-width="0.8" stroke-opacity="0.7"/>
      <circle cx="556" cy="232" r="6" fill="#0f7fd4" fill-opacity="0.2" stroke="#0f7fd4" stroke-width="1"/>
      <circle cx="556" cy="232" r="3" fill="#0f7fd4"/>
      <text x="569" y="237" class="tag-text">SQLite</text>
    </g>
    <g class="tag-wrap" style="animation-delay:0.7s">
      <rect x="618" y="218" width="100" height="28" fill="url(#tagGrad)" rx="7" stroke="#231F20" stroke-width="0.8" stroke-opacity="0.9"/>
      <circle cx="634" cy="232" r="6" fill="#f5c518" fill-opacity="0.2" stroke="#f5c518" stroke-width="1"/>
      <circle cx="634" cy="232" r="3" fill="#f5c518"/>
      <text x="647" y="237" class="tag-text">Kafka</text>
    </g>
  </g>

  <line x1="40" y1="260" x2="760" y2="260" class="divider"/>

  <!-- ═══ ROW 4 · DEVOPS ═══ -->
  <g class="row4">
    <text x="400" y="278" class="section-label" text-anchor="middle">Cloud · DevOps · Infra</text>

    <g class="tag-wrap" style="animation-delay:0.1s">
      <rect x="36" y="284" width="64" height="28" fill="url(#tagGrad)" rx="7" stroke="#FF9900" stroke-width="0.8" stroke-opacity="0.7"/>
      <circle cx="52" cy="298" r="6" fill="#FF9900" fill-opacity="0.2" stroke="#FF9900" stroke-width="1"/>
      <circle cx="52" cy="298" r="3" fill="#FF9900"/>
      <text x="65" y="303" class="tag-text">AWS</text>
    </g>
    <g class="tag-wrap" style="animation-delay:0.2s">
      <rect x="108" y="284" width="66" height="28" fill="url(#tagGrad)" rx="7" stroke="#4285F4" stroke-width="0.8" stroke-opacity="0.7"/>
      <circle cx="124" cy="298" r="6" fill="#4285F4" fill-opacity="0.2" stroke="#4285F4" stroke-width="1"/>
      <circle cx="124" cy="298" r="3" fill="#4285F4"/>
      <text x="137" y="303" class="tag-text">GCP</text>
    </g>
    <g class="tag-wrap" style="animation-delay:0.3s">
      <rect x="182" y="284" width="80" height="28" fill="url(#tagGrad)" rx="7" stroke="#0db7ed" stroke-width="0.8" stroke-opacity="0.7"/>
      <circle cx="198" cy="298" r="6" fill="#0db7ed" fill-opacity="0.2" stroke="#0db7ed" stroke-width="1"/>
      <circle cx="198" cy="298" r="3" fill="#0db7ed"/>
      <text x="211" y="303" class="tag-text">Docker</text>
    </g>
    <g class="tag-wrap" style="animation-delay:0.4s">
      <rect x="270" y="284" width="100" height="28" fill="url(#tagGrad)" rx="7" stroke="#326CE5" stroke-width="0.8" stroke-opacity="0.7"/>
      <circle cx="286" cy="298" r="6" fill="#326CE5" fill-opacity="0.2" stroke="#326CE5" stroke-width="1"/>
      <circle cx="286" cy="298" r="3" fill="#326CE5"/>
      <text x="299" y="303" class="tag-text">Kubernetes</text>
    </g>
    <g class="tag-wrap" style="animation-delay:0.5s">
      <rect x="378" y="284" width="86" height="28" fill="url(#tagGrad)" rx="7" stroke="#7B42BC" stroke-width="0.8" stroke-opacity="0.7"/>
      <circle cx="394" cy="298" r="6" fill="#7B42BC" fill-opacity="0.2" stroke="#7B42BC" stroke-width="1"/>
      <circle cx="394" cy="298" r="3" fill="#7B42BC"/>
      <text x="407" y="303" class="tag-text">Terraform</text>
    </g>
    <g class="tag-wrap" style="animation-delay:0.6s">
      <rect x="472" y="284" width="70" height="28" fill="url(#tagGrad)" rx="7" stroke="#009639" stroke-width="0.8" stroke-opacity="0.7"/>
      <circle cx="488" cy="298" r="6" fill="#009639" fill-opacity="0.2" stroke="#009639" stroke-width="1"/>
      <circle cx="488" cy="298" r="3" fill="#009639"/>
      <text x="501" y="303" class="tag-text">Nginx</text>
    </g>
    <g class="tag-wrap" style="animation-delay:0.7s">
      <rect x="550" y="284" width="68" height="28" fill="url(#tagGrad)" rx="7" stroke="#aaa" stroke-width="0.8" stroke-opacity="0.5"/>
      <circle cx="566" cy="298" r="6" fill="#aaa" fill-opacity="0.15" stroke="#aaa" stroke-width="1"/>
      <circle cx="566" cy="298" r="3" fill="#ccc"/>
      <text x="579" y="303" class="tag-text">Linux</text>
    </g>
    <g class="tag-wrap" style="animation-delay:0.8s">
      <rect x="626" y="284" width="102" height="28" fill="url(#tagGrad)" rx="7" stroke="#2088FF" stroke-width="0.8" stroke-opacity="0.7"/>
      <circle cx="642" cy="298" r="6" fill="#2088FF" fill-opacity="0.2" stroke="#2088FF" stroke-width="1"/>
      <circle cx="642" cy="298" r="3" fill="#2088FF"/>
      <text x="655" y="303" class="tag-text">GH Actions</text>
    </g>
  </g>

  <line x1="40" y1="326" x2="760" y2="326" class="divider"/>

  <!-- ═══ ROW 5 · AI / ML ═══ -->
  <g class="row5">
    <text x="400" y="344" class="section-label" text-anchor="middle">AI · ML · Data</text>

    <g class="tag-wrap" style="animation-delay:0.1s">
      <rect x="78" y="350" width="100" height="28" fill="url(#tagGrad)" rx="7" stroke="#FF6F00" stroke-width="0.8" stroke-opacity="0.7"/>
      <circle cx="94" cy="364" r="6" fill="#FF6F00" fill-opacity="0.2" stroke="#FF6F00" stroke-width="1"/>
      <circle cx="94" cy="364" r="3" fill="#FF6F00"/>
      <text x="107" y="369" class="tag-text">TensorFlow</text>
    </g>
    <g class="tag-wrap" style="animation-delay:0.2s">
      <rect x="186" y="350" width="82" height="28" fill="url(#tagGrad)" rx="7" stroke="#EE4C2C" stroke-width="0.8" stroke-opacity="0.7"/>
      <circle cx="202" cy="364" r="6" fill="#EE4C2C" fill-opacity="0.2" stroke="#EE4C2C" stroke-width="1"/>
      <circle cx="202" cy="364" r="3" fill="#EE4C2C"/>
      <text x="215" y="369" class="tag-text">PyTorch</text>
    </g>
    <g class="tag-wrap" style="animation-delay:0.3s">
      <rect x="276" y="350" width="80" height="28" fill="url(#tagGrad)" rx="7" stroke="#5C3EE8" stroke-width="0.8" stroke-opacity="0.7"/>
      <circle cx="292" cy="364" r="6" fill="#5C3EE8" fill-opacity="0.2" stroke="#5C3EE8" stroke-width="1"/>
      <circle cx="292" cy="364" r="3" fill="#5C3EE8"/>
      <text x="305" y="369" class="tag-text">OpenCV</text>
    </g>
    <g class="tag-wrap" style="animation-delay:0.4s">
      <rect x="364" y="350" width="100" height="28" fill="url(#tagGrad)" rx="7" stroke="#F7931E" stroke-width="0.8" stroke-opacity="0.7"/>
      <circle cx="380" cy="364" r="6" fill="#F7931E" fill-opacity="0.2" stroke="#F7931E" stroke-width="1"/>
      <circle cx="380" cy="364" r="3" fill="#F7931E"/>
      <text x="393" y="369" class="tag-text">scikit-learn</text>
    </g>
    <g class="tag-wrap" style="animation-delay:0.5s">
      <rect x="472" y="350" width="94" height="28" fill="url(#tagGrad)" rx="7" stroke="#4a9eff" stroke-width="0.8" stroke-opacity="0.7"/>
      <circle cx="488" cy="364" r="6" fill="#4a9eff" fill-opacity="0.2" stroke="#4a9eff" stroke-width="1"/>
      <circle cx="488" cy="364" r="3" fill="#4a9eff"/>
      <text x="501" y="369" class="tag-text">LangChain</text>
    </g>
    <g class="tag-wrap" style="animation-delay:0.6s">
      <rect x="574" y="350" width="120" height="28" fill="url(#tagGrad)" rx="7" stroke="#a855f7" stroke-width="0.8" stroke-opacity="0.8"/>
      <circle cx="590" cy="364" r="6" fill="#a855f7" fill-opacity="0.25" stroke="#a855f7" stroke-width="1"/>
      <circle cx="590" cy="364" r="3" fill="#a855f7"/>
      <text x="603" y="369" class="tag-text">RAG Pipelines</text>
    </g>
  </g>

  <!-- Bottom status bar -->
  <rect x="0" y="400" width="800" height="20" fill="#07071200" rx="0"/>
  <circle cx="22" cy="410" r="3" fill="#22c55e" opacity="0.8">
    <animate attributeName="opacity" values="0.8;0.2;0.8" dur="2s" repeatCount="indefinite"/>
  </circle>
  <text x="32" y="414" font-family="'Courier New', monospace" font-size="8" fill="#4ade80" opacity="0.6" letter-spacing="1">SYSTEM ONLINE</text>
  <text x="680" y="414" font-family="'Courier New', monospace" font-size="8" fill="#6366f1" opacity="0.5" letter-spacing="1">v2.0 · RAKESH.DEV</text>

</svg>
